<svg xmlns="http://www.w3.org/2000/svg" xmlns:xlink="http://www.w3.org/1999/xlink" viewBox="0 0 512 512" width="512" height="512" style="width: 100%; height: 100%; transform: translate3d(0,0,0); content-visibility: visible;" preserveAspectRatio="xMidYMid meet"><defs><clipPath id="__lottie_element_2"><rect width="512" height="512" x="0" y="0"></rect></clipPath><clipPath id="__lottie_element_4"><path d="M0,0 L100,0 L100,100 L0,100z"></path></clipPath><linearGradient id="__lottie_element_10" spreadMethod="pad" gradientUnits="userSpaceOnUse" x1="49.801998138427734" y1="14.0600004196167" x2="50.297000885009766" y2="86.13600158691406"><stop offset="0%" stop-color="rgb(255,182,0)" stop-opacity="1"></stop><stop offset="50%" stop-color="rgb(246,156,0)" stop-opacity="1"></stop><stop offset="100%" stop-color="rgb(237,130,0)" stop-opacity="1"></stop></linearGradient><linearGradient id="__lottie_element_11" spreadMethod="pad" gradientUnits="userSpaceOnUse" x1="49.750999450683594" y1="15.24899959564209" x2="50.29600143432617" y2="86.1520004272461"><stop offset="0%" stop-color="rgb(203,112,0)" stop-opacity="1"></stop><stop offset="50%" stop-color="rgb(199,102,0)" stop-opacity="1"></stop><stop offset="100%" stop-color="rgb(196,92,0)" stop-opacity="1"></stop></linearGradient><linearGradient id="__lottie_element_12" spreadMethod="pad" gradientUnits="userSpaceOnUse" x1="68.20700073242188" y1="88.00199890136719" x2="40.76300048828125" y2="15.50100040435791"><stop offset="0%" stop-color="rgb(255,162,0)" stop-opacity="1"></stop><stop offset="50%" stop-color="rgb(255,193,47)" stop-opacity="1"></stop><stop offset="100%" stop-color="rgb(255,223,94)" stop-opacity="1"></stop></linearGradient></defs><g clip-path="url(#__lottie_element_2)"><g clip-path="url(#__lottie_element_4)" style="display: block;" transform="matrix(5.119999885559082,0,0,5.119999885559082,0,0)" opacity="1"><g style="display: block;" transform="matrix(1,0,0,1,0,0)" opacity="1"><g opacity="1" transform="matrix(1,0,0,1,0,0)"><path fill="url(#__lottie_element_10)" fill-opacity="1" d=" M37.15599822998047,33.97800064086914 C37.15599822998047,33.97800064086914 46.00400161743164,16.399999618530273 46.00400161743164,16.399999618530273 C47.02000045776367,14.427000045776367 49.75400161743164,13.548999786376953 51.80400085449219,14.524999618530273 C52.60499954223633,14.914999961853027 53.42599868774414,15.657999992370605 53.816001892089844,16.47800064086914 C53.816001892089844,16.47800064086914 62.23400115966797,33.645999908447266 62.23400115966797,33.645999908447266 C62.917999267578125,35.051998138427734 64.03099822998047,35.75600051879883 65.55400085449219,35.95100021362305 C65.55400085449219,35.95100021362305 82.87899780273438,38.020999908447266 82.87899780273438,38.020999908447266 C85.43699645996094,38.33399963378906 87.25399780273438,40.891998291015625 86.96099853515625,43.31399917602539 C86.84400177001953,44.310001373291016 86.3949966430664,45.36399841308594 85.69100189208984,46.06800079345703 C85.69100189208984,46.06800079345703 71.8239974975586,59.79800033569336 71.8239974975586,59.79800033569336 C71.25800323486328,60.3650016784668 71.12100219726562,61.00899887084961 71.21900177001953,61.79100036621094 C71.21900177001953,61.79100036621094 73.46499633789062,80.36499786376953 73.46499633789062,80.36499786376953 C73.7969970703125,83.04100036621094 71.66799926757812,85.50199890136719 69.03099822998047,85.83399963378906 C68.03500366210938,85.95099639892578 66.88300323486328,85.83399963378906 65.98400115966797,85.34500122070312 C65.98400115966797,85.34500122070312 51.59000015258789,77.41500091552734 51.59000015258789,77.41500091552734 C50.222999572753906,76.71199798583984 49.26599884033203,76.75199890136719 48.191001892089844,77.31800079345703 C48.191001892089844,77.31800079345703 33.27000045776367,85.052001953125 33.27000045776367,85.052001953125 C31.121000289916992,86.16600036621094 28.132999420166016,85.28700256347656 27.040000915527344,83.11900329589844 C26.628999710083008,82.29900360107422 26.297000885009766,81.43900299072266 26.452999114990234,80.34500122070312 C26.452999114990234,80.34500122070312 27.604999542236328,71.927001953125 27.604999542236328,71.927001953125 C28.229999542236328,67.37699890136719 30.96500015258789,63.56800079345703 34.67499923706055,61.65399932861328 C34.67499923706055,61.65399932861328 50.47700119018555,53.430999755859375 50.47700119018555,53.430999755859375 C51.472999572753906,52.845001220703125 51.53099822998047,52.29800033569336 50.06700134277344,52.49399948120117 C50.06700134277344,52.49399948120117 30.496999740600586,55.16999816894531 30.496999740600586,55.16999816894531 C27.332000732421875,55.61899948120117 23.93400001525879,54.486000061035156 21.452999114990234,52.45500183105469 C21.452999114990234,52.45500183105469 14.656000137329102,46.810001373291016 14.656000137329102,46.810001373291016 C12.76200008392334,45.32600021362305 12.430000305175781,42.025001525878906 14.031000137329102,40.03300094604492 C14.77299976348877,39.1150016784668 15.96500015258789,38.275001525878906 17.117000579833984,38.11899948120117 C17.117000579833984,38.11899948120117 34.77299880981445,35.83399963378906 34.77299880981445,35.83399963378906 C35.90599822998047,35.715999603271484 36.64799880981445,35.013999938964844 37.15599822998047,33.97800064086914 C37.15599822998047,33.97800064086914 37.15599822998047,33.97800064086914 37.15599822998047,33.97800064086914z"></path></g><g opacity="1" transform="matrix(1,0,0,1,0,0)"><path fill="url(#__lottie_element_11)" fill-rule="evenodd" fill-opacity="1" d=" M52.10300064086914,13.859000205993652 C49.68899917602539,12.708999633789062 46.48899841308594,13.715999603271484 45.27199935913086,16.08099937438965 C45.27199935913086,16.08099937438965 45.268001556396484,16.08799934387207 45.268001556396484,16.08799934387207 C45.268001556396484,16.08799934387207 36.42100143432617,33.66600036621094 36.42100143432617,33.66600036621094 C36.42100143432617,33.66600036621094 36.41699981689453,33.67300033569336 36.41699981689453,33.67300033569336 C35.98500061035156,34.55500030517578 35.435001373291016,35.01499938964844 34.654998779296875,35.09600067138672 C34.654998779296875,35.09600067138672 34.6349983215332,35.097999572753906 34.6349983215332,35.097999572753906 C34.6349983215332,35.097999572753906 16.979000091552734,37.382999420166016 16.979000091552734,37.382999420166016 C16.979000091552734,37.382999420166016 16.975000381469727,37.382999420166016 16.975000381469727,37.382999420166016 C15.564000129699707,37.57500076293945 14.208999633789062,38.5629997253418 13.38599967956543,39.58100128173828 C13.38599967956543,39.58100128173828 13.385000228881836,39.582000732421875 13.385000228881836,39.582000732421875 C12.437000274658203,40.762001037597656 12.081999778747559,42.29600143432617 12.217000007629395,43.724998474121094 C12.35200023651123,45.14699935913086 12.982999801635742,46.55500030517578 14.126999855041504,47.457000732421875 C14.126999855041504,47.457000732421875 20.91699981689453,53.095001220703125 20.91699981689453,53.095001220703125 C20.91699981689453,53.095001220703125 20.920000076293945,53.097999572753906 20.920000076293945,53.097999572753906 C23.545000076293945,55.24800109863281 27.1560001373291,56.465999603271484 30.56599998474121,55.983001708984375 C30.56599998474121,55.983001708984375 30.56800079345703,55.983001708984375 30.56800079345703,55.983001708984375 C30.56800079345703,55.983001708984375 48.678001403808594,53.50600051879883 48.678001403808594,53.50600051879883 C48.678001403808594,53.50600051879883 34.279998779296875,60.999000549316406 34.279998779296875,60.999000549316406 C34.279998779296875,60.999000549316406 34.27799987792969,60.999000549316406 34.27799987792969,60.999000549316406 C30.334999084472656,63.034000396728516 27.45199966430664,67.06700134277344 26.79400062561035,71.86000061035156 C26.79400062561035,71.86000061035156 25.642000198364258,80.27400207519531 25.642000198364258,80.27400207519531 C25.642000198364258,80.27400207519531 25.642000198364258,80.2760009765625 25.642000198364258,80.2760009765625 C25.45199966430664,81.60600280761719 25.8700008392334,82.64099884033203 26.302000045776367,83.50700378417969 C26.302000045776367,83.50700378417969 26.304000854492188,83.51000213623047 26.304000854492188,83.51000213623047 C27.604000091552734,86.08699798583984 31.07900047302246,87.08699798583984 33.590999603271484,85.78500366210938 C33.590999603271484,85.78500366210938 48.51300048828125,78.0510025024414 48.51300048828125,78.0510025024414 C48.51300048828125,78.0510025024414 48.518001556396484,78.0479965209961 48.518001556396484,78.0479965209961 C48.9739990234375,77.80799865722656 49.35200119018555,77.70600128173828 49.733001708984375,77.71099853515625 C50.11800003051758,77.71600341796875 50.57600021362305,77.83200073242188 51.185001373291016,78.1449966430664 C51.185001373291016,78.1449966430664 65.56999969482422,86.06800079345703 65.56999969482422,86.06800079345703 C65.56999969482422,86.06800079345703 65.5739974975586,86.07099914550781 65.5739974975586,86.07099914550781 C66.65599822998047,86.65899658203125 67.98400115966797,86.77799987792969 69.08499908447266,86.64900207519531 C69.08499908447266,86.64900207519531 69.09100341796875,86.64800262451172 69.09100341796875,86.64800262451172 C72.11100006103516,86.26799774169922 74.59200286865234,83.45600128173828 74.2030029296875,80.30899810791016 C74.2030029296875,80.30899810791016 74.2030029296875,80.30799865722656 74.2030029296875,80.30799865722656 C74.2030029296875,80.30799865722656 71.95700073242188,61.736000061035156 71.95700073242188,61.736000061035156 C71.95700073242188,61.736000061035156 71.95700073242188,61.733001708984375 71.95700073242188,61.733001708984375 C71.87999725341797,61.12300109863281 71.98699951171875,60.74300003051758 72.33699798583984,60.39099884033203 C72.33699798583984,60.39099884033203 72.33899688720703,60.38999938964844 72.33899688720703,60.38999938964844 C72.33899688720703,60.38999938964844 86.2040023803711,46.6619987487793 86.2040023803711,46.6619987487793 C86.2040023803711,46.6619987487793 86.20600128173828,46.65999984741211 86.20600128173828,46.65999984741211 C87.05400085449219,45.8120002746582 87.56600189208984,44.58399963378906 87.6989974975586,43.444000244140625 C88.03900146484375,40.625 85.95099639892578,37.65299987792969 82.93599700927734,37.284000396728516 C82.93599700927734,37.284000396728516 82.93399810791016,37.284000396728516 82.93399810791016,37.284000396728516 C82.93399810791016,37.284000396728516 65.61599731445312,35.21500015258789 65.61599731445312,35.21500015258789 C65.61599731445312,35.21500015258789 65.61299896240234,35.21500015258789 65.61299896240234,35.21500015258789 C64.32099914550781,35.04800033569336 63.452999114990234,34.48500061035156 62.89899826049805,33.34400177001953 C62.89899826049805,33.34400177001953 62.89899826049805,33.340999603271484 62.89899826049805,33.340999603271484 C62.89899826049805,33.340999603271484 54.48400115966797,16.180999755859375 54.48400115966797,16.180999755859375 C54.48400115966797,16.180999755859375 54.481998443603516,16.177000045776367 54.481998443603516,16.177000045776367 C54.00199890136719,15.170999526977539 53.03799819946289,14.3149995803833 52.11000061035156,13.862000465393066 C52.11000061035156,13.862000465393066 52.10300064086914,13.859000205993652 52.10300064086914,13.859000205993652 C52.10300064086914,13.859000205993652 52.10300064086914,13.859000205993652 52.10300064086914,13.859000205993652z M46.65999984741211,16.797000885009766 C46.65999984741211,16.797000885009766 46.6619987487793,16.79400062561035 46.6619987487793,16.79400062561035 C47.47700119018555,15.215999603271484 49.742000579833984,14.467000007629395 51.428001403808594,15.267999649047852 C52.0989990234375,15.595999717712402 52.77299880981445,16.22100067138672 53.073001861572266,16.85300064086914 C53.073001861572266,16.85300064086914 53.07699966430664,16.861000061035156 53.07699966430664,16.861000061035156 C53.07699966430664,16.861000061035156 61.49399948120117,34.027000427246094 61.49399948120117,34.027000427246094 C61.49399948120117,34.027000427246094 61.49399948120117,34.02799987792969 61.49399948120117,34.02799987792969 C62.30699920654297,35.698001861572266 63.66600036621094,36.540000915527344 65.41799926757812,36.76499938964844 C65.41799926757812,36.76499938964844 65.42400360107422,36.76499938964844 65.42400360107422,36.76499938964844 C65.42400360107422,36.76499938964844 82.74700164794922,38.834999084472656 82.74700164794922,38.834999084472656 C84.8489990234375,39.09299850463867 86.39199829101562,41.236000061035156 86.14700317382812,43.25899887084961 C86.14700317382812,43.25899887084961 86.14700317382812,43.262001037597656 86.14700317382812,43.262001037597656 C86.0469970703125,44.11399841308594 85.66000366210938,44.994998931884766 85.10299682617188,45.553001403808594 C85.10299682617188,45.553001403808594 85.10099792480469,45.55500030517578 85.10099792480469,45.55500030517578 C85.10099792480469,45.55500030517578 71.23699951171875,59.28200149536133 71.23699951171875,59.28200149536133 C71.23699951171875,59.28200149536133 71.23400115966797,59.28499984741211 71.23400115966797,59.28499984741211 C70.4540023803711,60.064998626708984 70.28700256347656,60.9739990234375 70.40599822998047,61.92499923706055 C70.40599822998047,61.92499923706055 70.40599822998047,61.926998138427734 70.40599822998047,61.926998138427734 C70.40599822998047,61.926998138427734 72.6520004272461,80.49700164794922 72.6520004272461,80.49700164794922 C72.6520004272461,80.49700164794922 72.6520004272461,80.5 72.6520004272461,80.5 C72.92500305175781,82.7040023803711 71.1520004272461,84.81199645996094 68.89900207519531,85.09700012207031 C68.00900268554688,85.20099639892578 67.03500366210938,85.08599853515625 66.32099914550781,84.6989974975586 C66.32099914550781,84.6989974975586 66.31999969482422,84.697998046875 66.31999969482422,84.697998046875 C66.31999969482422,84.697998046875 51.93000030517578,76.77100372314453 51.93000030517578,76.77100372314453 C51.93000030517578,76.77100372314453 51.90999984741211,76.76000213623047 51.90999984741211,76.76000213623047 C51.15700149536133,76.37300109863281 50.45500183105469,76.15799713134766 49.75400161743164,76.14900207519531 C49.04600143432617,76.13899993896484 48.40999984741211,76.33899688720703 47.79199981689453,76.66500091552734 C47.79199981689453,76.66500091552734 47.78900146484375,76.66600036621094 47.78900146484375,76.66600036621094 C47.78900146484375,76.66600036621094 32.87300109863281,84.39800262451172 32.87300109863281,84.39800262451172 C31.089000701904297,85.3219985961914 28.586999893188477,84.56400299072266 27.700000762939453,82.80799865722656 C27.312999725341797,82.03299713134766 27.066999435424805,81.3499984741211 27.18899917602539,80.49500274658203 C27.18899917602539,80.49500274658203 27.18899917602539,80.48999786376953 27.18899917602539,80.48999786376953 C27.18899917602539,80.48999786376953 28.341999053955078,72.072998046875 28.341999053955078,72.072998046875 C28.933000564575195,67.76499938964844 31.518999099731445,64.18099975585938 34.99599838256836,62.387001037597656 C34.99599838256836,62.387001037597656 34.999000549316406,62.38600158691406 34.999000549316406,62.38600158691406 C34.999000549316406,62.38600158691406 50.79899978637695,54.16299819946289 50.79899978637695,54.16299819946289 C51.08273696899414,54.00803756713867 51.34245300292969,53.812660217285156 51.56999969482422,53.58300018310547 C51.66699981689453,53.48099899291992 51.77000045776367,53.349998474121094 51.84299850463867,53.191001892089844 C51.91600036621094,53.03099822998047 51.97999954223633,52.79600143432617 51.91699981689453,52.52799987792969 C51.77799987792969,51.944000244140625 51.22700119018555,51.78799819946289 50.987998962402344,51.744998931884766 C50.6870002746582,51.69200134277344 50.323001861572266,51.70500183105469 49.92599868774414,51.757999420166016 C49.92599868774414,51.757999420166016 49.92300033569336,51.757999420166016 49.92300033569336,51.757999420166016 C49.92300033569336,51.757999420166016 30.35300064086914,54.433998107910156 30.35300064086914,54.433998107910156 C30.35300064086914,54.433998107910156 30.349000930786133,54.435001373291016 30.349000930786133,54.435001373291016 C27.43199920654297,54.8489990234375 24.249000549316406,53.803001403808594 21.913000106811523,51.89099884033203 C21.913000106811523,51.89099884033203 21.90999984741211,51.888999938964844 21.90999984741211,51.888999938964844 C21.90999984741211,51.888999938964844 15.118000030517578,46.249000549316406 15.118000030517578,46.249000549316406 C15.118000030517578,46.249000549316406 15.109999656677246,46.242000579833984 15.109999656677246,46.242000579833984 C15.109999656677246,46.242000579833984 15.100000381469727,46.23400115966797 15.100000381469727,46.23400115966797 C14.355999946594238,45.6510009765625 13.876999855041504,44.67100143432617 13.77299976348877,43.57699966430664 C13.668999671936035,42.48699951171875 13.949000358581543,41.375 14.60200023651123,40.5620002746582 C15.262999534606934,39.744998931884766 16.288999557495117,39.05400085449219 17.18199920654297,38.93199920654297 C17.18199920654297,38.93199920654297 17.184999465942383,38.93199920654297 17.184999465942383,38.93199920654297 C17.184999465942383,38.93199920654297 34.82699966430664,36.64899826049805 34.82699966430664,36.64899826049805 C36.30500030517578,36.492000579833984 37.23699951171875,35.54899978637695 37.81800079345703,34.3650016784668 C37.81800079345703,34.3650016784668 37.81999969482422,34.361000061035156 37.81999969482422,34.361000061035156 C37.81999969482422,34.361000061035156 46.65999984741211,16.797000885009766 46.65999984741211,16.797000885009766 C46.65999984741211,16.797000885009766 46.65999984741211,16.797000885009766 46.65999984741211,16.797000885009766z"></path></g><g opacity="1" transform="matrix(1,0,0,1,0,0)"><path fill="url(#__lottie_element_12)" fill-opacity="1" d=" M70.2030029296875,79.76000213623047 C70.2030029296875,79.76000213623047 67.91799926757812,61.63399887084961 67.91799926757812,61.63399887084961 C67.72200012207031,60.071998596191406 68.26899719238281,58.645999908447266 69.51899719238281,57.45399856567383 C69.51899719238281,57.45399856567383 82.93699645996094,44.15399932861328 82.93699645996094,44.15399932861328 C83.2300033569336,43.861000061035156 83.38700103759766,43.255001068115234 83.38700103759766,42.845001220703125 C83.38700103759766,41.8489990234375 82.72200012207031,41.28300094604492 81.76599884033203,41.165000915527344 C81.76599884033203,41.165000915527344 64.81199645996094,39.095001220703125 64.81199645996094,39.095001220703125 C62.44900131225586,38.801998138427734 60.37900161743164,37.27899932861328 59.32400131225586,35.130001068115234 C59.32400131225586,35.130001068115234 51.20000076293945,18.489999771118164 51.20000076293945,18.489999771118164 C51.04399871826172,18.177000045776367 50.65299987792969,17.923999786376953 50.34000015258789,17.78700065612793 C49.93000030517578,17.591999053955078 49.051998138427734,17.80699920654297 48.68000030517578,18.586999893188477 C48.68000030517578,18.586999893188477 39.79399871826172,35.676998138427734 39.79399871826172,35.676998138427734 C38.915802001953125,37.440921783447266 37.21589660644531,38.6576042175293 35.26300048828125,38.91999816894531 C35.26300048828125,38.91999816894531 18.132999420166016,41.26300048828125 18.132999420166016,41.26300048828125 C17.625999450683594,41.321998596191406 17.13800048828125,41.516998291015625 16.825000762939453,41.926998138427734 C16.29800033569336,42.611000061035156 16.51300048828125,44.19300079345703 17.351999282836914,44.89699935913086 C17.351999282836914,44.89699935913086 23.875999450683594,50.24700164794922 23.875999450683594,50.24700164794922 C25.750999450683594,51.79100036621094 28.016000747680664,52.551998138427734 30.41900062561035,52.220001220703125 C30.41900062561035,52.220001220703125 50.71200180053711,49.290000915527344 50.71200180053711,49.290000915527344 C52.1688117980957,49.082088470458984 53.6048469543457,49.83181381225586 54.266998291015625,51.145999908447266 C55.106998443603516,52.82600021362305 54.36399841308594,54.8380012512207 52.685001373291016,55.69599914550781 C52.685001373291016,55.69599914550781 36.31700134277344,64.09600067138672 36.31700134277344,64.09600067138672 C33.387001037597656,65.5989990234375 31.375999450683594,68.45099639892578 30.906999588012695,71.75199890136719 C30.906999588012695,71.75199890136719 29.7549991607666,80.0719985961914 29.7549991607666,80.0719985961914 C29.695999145507812,80.44300079345703 29.871999740600586,81.00900268554688 30.125,81.28199768066406 C30.770000457763672,82.00599670410156 31.493000030517578,82.22000122070312 32.35200119018555,81.79100036621094 C32.35200119018555,81.79100036621094 46.981998443603516,74.2509994506836 46.981998443603516,74.2509994506836 C49.012001037597656,73.21600341796875 51.10200119018555,73.39199829101562 52.880001068115234,74.36900329589844 C52.880001068115234,74.36900329589844 67,82.12300109863281 67,82.12300109863281 C67.41100311279297,82.33799743652344 68.05599975585938,82.41600036621094 68.50499725341797,82.31800079345703 C69.48100280761719,82.08399963378906 70.36000061035156,81.00900268554688 70.2040023803711,79.75900268554688 C70.2040023803711,79.75900268554688 70.2030029296875,79.76000213623047 70.2030029296875,79.76000213623047z"></path></g><g opacity="1" transform="matrix(1,0,0,1,0,0)"><path fill="rgb(255,217,103)" fill-opacity="1" d=" M64.81300354003906,39.095001220703125 C62.44900131225586,38.801998138427734 60.37900161743164,37.27899932861328 59.32400131225586,35.130001068115234 C59.32400131225586,35.130001068115234 51.20000076293945,18.489999771118164 51.20000076293945,18.489999771118164 C51.04225158691406,18.188016891479492 50.788063049316406,17.947206497192383 50.47800064086914,17.805999755859375 C49.95000076293945,17.57200050354004 48.915000915527344,17.72800064086914 48.54399871826172,18.489999771118164 C48.54399871826172,18.489999771118164 39.79399871826172,35.676998138427734 39.79399871826172,35.676998138427734 C38.915550231933594,37.44053649902344 37.21569061279297,38.65681457519531 35.26300048828125,38.91899871826172 C35.26300048828125,38.91899871826172 18.134000778198242,41.26300048828125 18.134000778198242,41.26300048828125 C17.625999450683594,41.321998596191406 17.13800048828125,41.516998291015625 16.825000762939453,41.926998138427734 C16.27899932861328,42.66899871826172 16.51300048828125,44.19300079345703 17.35300064086914,44.89699935913086 C17.35300064086914,44.89699935913086 23.875999450683594,50.24700164794922 23.875999450683594,50.24700164794922 C25.750999450683594,51.79100036621094 28.016000747680664,52.551998138427734 30.41900062561035,52.220001220703125 C30.41900062561035,52.220001220703125 50.71200180053711,49.290000915527344 50.71200180053711,49.290000915527344 C52.35344314575195,49.055419921875 53.94221115112305,50.04045867919922 54.46200180053711,51.6150016784668 C59.736000061035156,48.54800033569336 66.98200225830078,44.231998443603516 73.05599975585938,40.111000061035156 C73.05599975585938,40.111000061035156 64.81400299072266,39.095001220703125 64.81400299072266,39.095001220703125 C64.81400299072266,39.095001220703125 64.81300354003906,39.095001220703125 64.81300354003906,39.095001220703125z"></path></g><g opacity="1" transform="matrix(1,0,0,1,0,0)"><path stroke-linecap="round" stroke-linejoin="round" fill-opacity="0" stroke="rgb(255,255,255)" stroke-opacity="1" stroke-width="3.32" d=" M18.25,42.90399932861328 C18.25,42.90399932861328 36.082000732421875,40.38399887084961 36.082000732421875,40.38399887084961 C38.01599884033203,40.111000061035156 40.066001892089844,38.56800079345703 41.10200119018555,36.88800048828125 C41.10200119018555,36.88800048828125 49.96900177001953,19.62299919128418 49.96900177001953,19.62299919128418"></path></g></g></g></g></svg>